<svg width="160" height="19" viewBox="0 0 160 19" fill="none" xmlns="http://www.w3.org/2000/svg">
<g clip-path="url(#clip0)">
<path d="M18.3631 0V18.6667H14.8018V8.67192L9.27429 14.5144H9.0517L3.56133 8.67192V18.6667H0V0H0.222583L9.163 9.77428L18.1034 0H18.3631Z" fill="white"/>
<path d="M41.2149 9.44357C41.2149 14.7717 37.5423 18.8871 32.1632 18.8871C26.7841 18.8871 23.0744 14.7717 23.0744 9.44357C23.0744 4.11549 26.7841 0 32.1632 0C37.5423 0 41.2149 4.11549 41.2149 9.44357ZM37.5794 9.44357C37.5794 6.06299 35.539 3.52756 32.1632 3.52756C28.7503 3.52756 26.7099 6.06299 26.7099 9.44357C26.7099 12.7874 28.7503 15.3596 32.1632 15.3596C35.539 15.3596 37.5794 12.8241 37.5794 9.44357Z" fill="white"/>
<path d="M63.2136 9.44357C63.2136 14.7717 59.5409 18.8871 54.1619 18.8871C48.7828 18.8871 45.0731 14.7717 45.0731 9.44357C45.0731 4.11549 48.7828 0 54.1619 0C59.5039 0 63.2136 4.11549 63.2136 9.44357ZM59.578 9.44357C59.578 6.06299 57.5377 3.52756 54.1619 3.52756C50.7489 3.52756 48.7086 6.06299 48.7086 9.44357C48.7086 12.7874 50.7489 15.3596 54.1619 15.3596C57.5377 15.3596 59.578 12.8241 59.578 9.44357Z" fill="white"/>
<path d="M78.9427 0.146982H82.5041V18.8871H82.2815L71.5233 8.30446V18.6667H67.962V0H68.1846L78.9427 10.5459V0.146982Z" fill="white"/>
<path d="M99.309 15.3228V18.6667H88.1057V0.146973H91.667V15.3228H99.309Z" fill="white"/>
<path d="M120.195 18.6667H116.151L111.514 5.43831L106.877 18.6667H102.833L109.659 0.146973H113.295L120.195 18.6667Z" fill="white"/>
<path d="M135.108 0.146982H138.669V18.8871H138.447L127.688 8.30446V18.6667H124.127V0H124.35L135.108 10.5459V0.146982Z" fill="white"/>
<path d="M160 9.40681C160 14.8451 156.402 18.6667 150.206 18.6667H144.197V9.99474H147.758V15.3228H150.132C154.064 15.3228 156.476 12.9711 156.476 9.40681C156.476 5.87926 154.064 3.52755 150.132 3.52755H144.197V0.146973H150.206C156.402 0.146973 160 4.00524 160 9.40681Z" fill="white"/>
</g>
<defs>
<clipPath id="clip0">
<rect width="160" height="18.6667" fill="white"/>
</clipPath>
</defs>
</svg>
