<svg width="26" height="25" viewBox="0 0 26 25" fill="none" xmlns="http://www.w3.org/2000/svg">
<rect x="5" y="5" width="16" height="15" fill="black"/>
<path fill-rule="evenodd" clip-rule="evenodd" d="M16.4197 6.5603H9.12618C7.96203 6.5603 7.01489 7.51467 7.01489 8.6877V16.0369C7.01489 17.2099 7.96203 18.1646 9.12618 18.1646H16.4197C17.5839 18.1646 18.5313 17.2102 18.5313 16.0369V8.6877C18.5313 7.51467 17.5841 6.5603 16.4197 6.5603ZM12.7732 16.1824C10.6829 16.1824 8.98217 14.4688 8.98217 12.3622C8.98217 10.256 10.6829 8.54232 12.7732 8.54232C14.8637 8.54232 16.5644 10.256 16.5644 12.3622C16.5644 14.4685 14.8635 16.1824 12.7732 16.1824ZM15.7888 8.42839C15.7888 8.92672 16.1912 9.3322 16.6861 9.3322C17.1806 9.3322 17.583 8.92672 17.583 8.42839C17.583 7.93005 17.1806 7.52457 16.6861 7.52457C16.1912 7.52457 15.7888 7.93005 15.7888 8.42839Z" fill="white"/>
<path d="M12.7728 10.1565C11.5661 10.1565 10.5835 11.146 10.5835 12.3619C10.5835 13.5784 11.5661 14.5682 12.7728 14.5682C13.98 14.5682 14.9617 13.5784 14.9617 12.3619C14.9617 11.1463 13.9797 10.1565 12.7728 10.1565Z" fill="white"/>
<path fill-rule="evenodd" clip-rule="evenodd" d="M0.537109 12.329C0.537109 5.52015 6.01544 0 12.7727 0C19.5299 0 25.0083 5.52015 25.0083 12.329C25.0083 19.1378 19.5299 24.658 12.7727 24.658C6.01544 24.658 0.537109 19.1378 0.537109 12.329ZM16.4194 19.7785C18.4672 19.7785 20.1327 18.1003 20.1327 16.0369V8.6877C20.1327 6.62458 18.4672 4.94606 16.4194 4.94606H9.12591C7.07842 4.94606 5.41262 6.62458 5.41262 8.6877V16.0369C5.41262 18.1003 7.07842 19.7785 9.12591 19.7785H16.4194Z" fill="white"/>
</svg>
